Coordinates
version=1
nRows=8
nColumns=46
inDegrees=yes

Units are S.I. units (second, meters, Newtons, ...)
Angles are in degrees.

endheader
time	pelvis_tilt	pelvis_list	pelvis_rotation	pelvis_tx	pelvis_ty	pelvis_tz	bb_angle	bb_tx	bb_ty	bb_tz	hip_flexion_r	hip_adduction_r	hip_rotation_r	knee_angle_r	knee_angle_r_beta	ankle_angle_r	subtalar_angle_r	mtp_angle_r	crank_angle_r	hip_flexion_l	hip_adduction_l	hip_rotation_l	knee_angle_l	knee_angle_l_beta	ankle_angle_l	subtalar_angle_l	mtp_angle_l	crank_angle_l	lumbar_extension	lumbar_bending	lumbar_rotation	arm_flex_r	arm_add_r	arm_rot_r	elbow_flex_r	pro_sup_r	wrist_flex_r	wrist_dev_r	arm_flex_l	arm_add_l	arm_rot_l	elbow_flex_l	pro_sup_l	wrist_flex_l	wrist_dev_l
      5.00000000	    -12.04000486	     -4.71403052	      7.49739724	      0.15006682	      1.08918564	     -0.26207520	      0.00000000	      0.50000000	      0.00000000	      0.25000000	     85.17974813	     -3.30208824	      1.57380328	    119.65692421	      2.08840730	    -13.09403888	    -20.70005168	      0.00000000	      0.00000000	     41.99620380	     -3.19690172	      5.60026403	     36.13892686	      0.63074326	     -7.92337323	     -9.40876245	      0.00000000	      0.00000000	    -70.23682672	      4.46825484	      2.88585712	     75.66063390	    -18.08662377	     18.15696852	     72.44695674	     48.44695616	      0.00000000	      0.00000000	     83.15460252	    -13.09842751	     30.24378958	     68.82723694	     45.98266649	      0.00000000	      0.00000000
      5.00500000	    -12.10372704	     -4.67869142	      7.19387795	      0.15010921	      1.08970807	     -0.26288321	      0.00000000	      0.50000000	      0.00000000	      0.25000000	     86.33354714	     -3.47555734	      1.56643211	    120.06678626	      2.09556074	    -12.17840423	    -20.94652478	      0.00000000	      0.00000000	     41.16364051	     -3.51786711	      4.94011535	     35.74277795	      0.62382916	     -8.19327351	     -8.94451628	      0.00000000	      0.00000000	    -70.20103640	      4.62421066	      2.97085992	     75.97974189	    -17.73781528	     18.46254117	     72.26118626	     48.47245427	      0.00000000	      0.00000000	     82.88189498	    -13.37432278	     29.96066317	     68.86879003	     45.99895875	      0.00000000	      0.00000000
      5.01000000	    -12.12062832	     -4.65879060	      6.97926293	      0.15005144	      1.09031477	     -0.26384011	      0.00000000	      0.50000000	      0.00000000	      0.25000000	     87.38261898	     -3.61148051	      1.57830336	    120.33075186	      2.10016781	    -11.41500488	    -21.21286066	      0.00000000	      0.00000000	     40.39498507	     -3.76101464	      4.46885936	     35.54929792	      0.62045230	     -8.37873699	     -8.59352862	      0.00000000	      0.00000000	    -70.23574104	      4.85471546	      3.12842951	     76.31454595	    -17.50158134	     18.62688883	     72.21502179	     48.48990046	      0.00000000	      0.00000000	     82.69383713	    -13.56686685	     29.80151707	     68.82880102	     45.99543643	      0.00000000	      0.00000000
      5.01500000	    -12.11577977	     -4.61329760	      6.67471091	      0.14994842	      1.09107078	     -0.26462190	      0.00000000	      0.50000000	      0.00000000	      0.25000000	     88.33030014	     -3.66271812	      1.69924679	    120.40772251	      2.10151120	    -10.56222969	    -20.88484580	      0.00000000	      0.00000000	     39.68608877	     -4.06276556	      3.86116386	     35.53740535	      0.62024473	     -8.39439318	     -8.02521794	      0.00000000	      0.00000000	    -70.29256972	      5.08426055	      2.98326270	     77.01638575	    -16.81550444	     19.38742607	     71.34517962	     48.49010833	      0.00000000	      0.00000000	     82.27931604	    -14.14053861	     29.05020792	     69.24565650	     46.09236761	      0.00000000	      0.00000000
      5.02000000	    -12.14721471	     -4.56464585	      6.46296901	      0.14970234	      1.09189225	     -0.26550262	      0.00000000	      0.50000000	      0.00000000	      0.25000000	     89.23925482	     -3.83419548	      1.77369762	    120.26378159	      2.09899896	    -10.11104772	    -21.03022612	      0.00000000	      0.00000000	     39.12858786	     -4.24500002	      3.44456249	     35.67736150	      0.62268743	     -8.63041613	     -7.87996866	      0.00000000	      0.00000000	    -70.37342860	      5.28603738	      3.16846098	     77.34675103	    -16.64790530	     19.44323348	     71.41783484	     48.50997642	      0.00000000	      0.00000000	     82.19880268	    -14.30042466	     28.97782199	     69.16863055	     46.08365144	      0.00000000	      0.00000000
      5.02500000	    -12.18211649	     -4.56864258	      6.14331898	      0.14942018	      1.09284220	     -0.26609279	      0.00000000	      0.50000000	      0.00000000	      0.25000000	     90.01208761	     -3.80312555	      1.83796649	    119.91362446	      2.09288756	     -9.49028082	    -20.69927658	      0.00000000	      0.00000000	     38.73075004	     -4.55777684	      3.09177060	     36.16221842	      0.63114978	     -8.73347808	     -7.43960631	      0.00000000	      0.00000000	    -70.46570251	      5.45950768	      3.24851569	     77.81058038	    -16.19510169	     19.86532196	     71.18347210	     48.53818439	      0.00000000	      0.00000000	     82.06748915	    -14.73356649	     28.60770789	     69.20947442	     46.10102832	      0.00000000	      0.00000000
      5.03000000	    -12.16633669	     -4.46645604	      5.93987268	      0.14915904	      1.09409332	     -0.26700417	      0.00000000	      0.50000000	      0.00000000	      0.25000000	     90.60398565	     -3.98298696	      1.94890449	    119.36327389	      2.08328214	     -9.28092648	    -20.72775510	      0.00000000	      0.00000000	     38.21816020	     -4.58024269	      2.97893580	     36.49852558	      0.63701944	     -8.82451685	     -7.43457405	      0.00000000	      0.00000000	    -70.60868206	      5.56438238	      3.39454688	     77.87208960	    -16.13073505	     19.88973177	     71.18577361	     48.54135022	      0.00000000	      0.00000000	     82.04882785	    -14.80070936	     28.57730492	     69.19023471	     46.09743883	      0.00000000	      0.00000000
      5.03500000	    -12.15296151	     -4.51237719	      5.41804632	      0.14900209	      1.09507959	     -0.26724063	      0.00000000	      0.50000000	      0.00000000	      0.25000000	     91.07771878	     -3.68221356	      1.98435968	    118.68928515	      2.07151881	     -8.52185597	    -20.34293638	      0.00000000	      0.00000000	     38.07333462	     -5.07804549	      2.22030765	     37.50993954	      0.65467195	     -9.03968763	     -7.68140483	      0.00000000	      0.00000000	    -70.84246547	      5.59593690	      3.71358106	     78.60809760	    -15.77668017	     20.06164787	     71.27430110	     48.57094198	      0.00000000	      0.00000000	     82.01043289	    -15.16683133	     28.31895337	     69.11236541	     46.07599466	      0.00000000	      0.00000000
